<?xml version="1.0" encoding="utf-8"?>
<!-- Generator: Adobe Illustrator 21.1.0, SVG Export Plug-In . SVG Version: 6.00 Build 0)  -->
<svg version="1.1" id="Layer_1" xmlns="http://www.w3.org/2000/svg" xmlns:xlink="http://www.w3.org/1999/xlink" x="0px" y="0px"
	 viewBox="0 0 560 560" style="enable-background:new 0 0 560 560;" xml:space="preserve">
<style type="text/css">
	.st0{clip-path:url(#SVGID_2_);fill:url(#SVGID_3_);}
	.st1{clip-path:url(#SVGID_5_);fill:url(#SVGID_6_);}
	.st2{clip-path:url(#SVGID_8_);fill:url(#SVGID_9_);}
	.st3{clip-path:url(#SVGID_11_);fill:url(#SVGID_12_);}
</style>
<g>
	<defs>
		<path id="SVGID_1_" d="M94,107.2c0,0-29.3,203.7,85.8,213.7c-31.2-39.3-90.8-154.4,150.4-262.8c-19.8-2.9-38.5-4.1-56.1-4.1
			C159.6,54,94,107.2,94,107.2"/>
	</defs>
	<clipPath id="SVGID_2_">
		<use xlink:href="#SVGID_1_"  style="overflow:visible;"/>
	</clipPath>
	
		<linearGradient id="SVGID_3_" gradientUnits="userSpaceOnUse" x1="157.4517" y1="360.1479" x2="164.6102" y2="360.1479" gradientTransform="matrix(33.251 0 0 -33.251 -5143.333 12162.749)">
		<stop  offset="0" style="stop-color:#00973A"/>
		<stop  offset="0.1942" style="stop-color:#179D36"/>
		<stop  offset="0.5998" style="stop-color:#53AE2B"/>
		<stop  offset="1" style="stop-color:#93C01F"/>
	</linearGradient>
	<rect x="64.8" y="54" class="st0" width="265.5" height="266.9"/>
</g>
<g>
	<defs>
		<path id="SVGID_4_" d="M17.3,349.4c241.5,143.6,338.7-61,338.7-61C72.8,451,56.6,228.8,55.2,144.8
			C32.2,166.5-15.2,242.4,17.3,349.4"/>
	</defs>
	<clipPath id="SVGID_5_">
		<use xlink:href="#SVGID_4_"  style="overflow:visible;"/>
	</clipPath>
	
		<linearGradient id="SVGID_6_" gradientUnits="userSpaceOnUse" x1="156.7488" y1="356.9889" x2="163.908" y2="356.9889" gradientTransform="matrix(48.8383 0 0 -48.8383 -7649.0366 17753.6211)">
		<stop  offset="0" style="stop-color:#00973A"/>
		<stop  offset="0.1942" style="stop-color:#179D36"/>
		<stop  offset="0.5998" style="stop-color:#53AE2B"/>
		<stop  offset="1" style="stop-color:#93C01F"/>
	</linearGradient>
	<rect x="-15.2" y="144.8" class="st1" width="371.2" height="348.1"/>
</g>
<g>
	<defs>
		<path id="SVGID_7_" d="M395.2,239.7C276,533.6,24.9,368.1,24.9,368.1c49.3,80.2,100.8,96.4,198.3,114.1
			C438.6,506.5,553.7,237,553.7,237S521.2,239.7,395.2,239.7"/>
	</defs>
	<clipPath id="SVGID_8_">
		<use xlink:href="#SVGID_7_"  style="overflow:visible;"/>
	</clipPath>
	
		<linearGradient id="SVGID_9_" gradientUnits="userSpaceOnUse" x1="152.5779" y1="364.3996" x2="159.7383" y2="364.3996" gradientTransform="matrix(-19.4679 5.3989 5.3989 19.4679 1403.3051 -7563.3545)">
		<stop  offset="0" style="stop-color:#00973A"/>
		<stop  offset="0.1942" style="stop-color:#179D36"/>
		<stop  offset="0.5998" style="stop-color:#53AE2B"/>
		<stop  offset="1" style="stop-color:#93C01F"/>
	</linearGradient>
	<polygon class="st2" points="630.1,512.4 62.7,669.8 -51.5,258.1 516,100.8 	"/>
</g>
<g>
	<defs>
		<path id="SVGID_10_" d="M253,464.5C93.2,476.7,25.4,367,25.4,367S81,514.6,253,514.6c92.1-1.4,180.1-19,300.7-120.6V235.6
			C553.7,235.6,412.9,452.3,253,464.5"/>
	</defs>
	<clipPath id="SVGID_11_">
		<use xlink:href="#SVGID_10_"  style="overflow:visible;"/>
	</clipPath>
	
		<linearGradient id="SVGID_12_" gradientUnits="userSpaceOnUse" x1="150.4092" y1="361.594" x2="157.5692" y2="361.594" gradientTransform="matrix(-30.1163 8.5221 8.5221 30.1163 2015.2526 -11875.0596)">
		<stop  offset="0" style="stop-color:#00973A"/>
		<stop  offset="0.1942" style="stop-color:#179D36"/>
		<stop  offset="0.5998" style="stop-color:#53AE2B"/>
		<stop  offset="1" style="stop-color:#93C01F"/>
	</linearGradient>
	<polygon class="st3" points="626.8,494 64.6,653 -47.7,256.3 514.6,97.2 	"/>
</g>
</svg>
